<?xml version="1.0" encoding="UTF-8" standalone="no"?>
<!-- Created with Inkscape (http://www.inkscape.org/) -->

<svg
   width="2480.3049"
   height="288"
   viewBox="0 0 2480.3049 288"
   version="1.1"
   id="svg1"
   inkscape:version="1.4 (86a8ad7, 2024-10-11)"
   sodipodi:docname="MirrorsLogo.svg"
   xmlns:inkscape="http://www.inkscape.org/namespaces/inkscape"
   xmlns:sodipodi="http://sodipodi.sourceforge.net/DTD/sodipodi-0.dtd"
   xmlns="http://www.w3.org/2000/svg"
   xmlns:svg="http://www.w3.org/2000/svg"
   xmlns:rdf="http://www.w3.org/1999/02/22-rdf-syntax-ns#"
   xmlns:cc="http://creativecommons.org/ns#"
   xmlns:dc="http://purl.org/dc/elements/1.1/">
  <title
     id="title1">TZP Mirrors LOGO</title>
  <sodipodi:namedview
     id="namedview1"
     pagecolor="#ffffff"
     bordercolor="#000000"
     borderopacity="0.25"
     inkscape:showpageshadow="2"
     inkscape:pageopacity="0.0"
     inkscape:pagecheckerboard="0"
     inkscape:deskcolor="#d1d1d1"
     inkscape:document-units="px"
     inkscape:zoom="0.63301271"
     inkscape:cx="181.67092"
     inkscape:cy="10.268356"
     inkscape:window-width="1920"
     inkscape:window-height="991"
     inkscape:window-x="-9"
     inkscape:window-y="-9"
     inkscape:window-maximized="1"
     inkscape:current-layer="layer1" />
  <defs
     id="defs1" />
  <g
     inkscape:label="图层 1"
     inkscape:groupmode="layer"
     id="layer1"
     transform="translate(-32,-128)">
    <rect
       style="fill:#66c18c;fill-opacity:1;stroke-width:76.475;stroke-linejoin:round"
       id="rect1"
       width="128"
       height="32"
       x="32"
       y="128" />
    <rect
       style="fill:#66c18c;fill-opacity:1;stroke-width:76.475;stroke-linejoin:round"
       id="rect1-7"
       width="128"
       height="32"
       x="192"
       y="128" />
    <rect
       style="fill:#66c18c;fill-opacity:1;stroke-width:76.475;stroke-linejoin:round"
       id="rect1-7-2"
       width="128"
       height="32"
       x="352"
       y="128" />
    <rect
       style="fill:#66c18c;fill-opacity:1;stroke-width:76.475;stroke-linejoin:round"
       id="rect1-7-2-4"
       width="128"
       height="32"
       x="32"
       y="256" />
    <rect
       style="fill:#66c18c;fill-opacity:1;stroke-width:76.475;stroke-linejoin:round"
       id="rect1-7-2-4-2"
       width="128"
       height="32"
       x="192"
       y="256" />
    <rect
       style="fill:#66c18c;fill-opacity:1;stroke-width:76.475;stroke-linejoin:round"
       id="rect1-7-2-4-2-5"
       width="128"
       height="32"
       x="352"
       y="256" />
    <rect
       style="fill:#66c18c;fill-opacity:1;stroke-width:76.475;stroke-linejoin:round"
       id="rect1-7-2-4-2-5-8"
       width="128"
       height="32"
       x="32"
       y="384" />
    <rect
       style="fill:#66c18c;fill-opacity:1;stroke-width:76.475;stroke-linejoin:round"
       id="rect1-7-2-4-2-5-8-9"
       width="128"
       height="32"
       x="352"
       y="384" />
    <rect
       style="fill:#66c18c;fill-opacity:1;stroke-width:76.475;stroke-linejoin:round"
       id="rect1-7-2-4-2-5-8-9-1"
       width="128"
       height="32"
       x="192"
       y="384" />
    <rect
       style="fill:#66c18c;fill-opacity:1;stroke-width:76.475;stroke-linejoin:round"
       id="rect1-7-2-4-2-5-8-9-1-4"
       width="128"
       height="32"
       x="138"
       y="340" />
    <rect
       style="fill:#66c18c;fill-opacity:1;stroke-width:76.475;stroke-linejoin:round"
       id="rect1-7-2-4-2-5-8-9-1-4-8"
       width="128"
       height="32"
       x="78"
       y="300" />
    <rect
       style="fill:#66c18c;fill-opacity:1;stroke-width:108.152;stroke-linejoin:round"
       id="rect1-7-2-4-2-5-8-9-1-4-8-1"
       width="256"
       height="32"
       x="-78.583435"
       y="250.95767"
       transform="rotate(-30.128723)" />
    <path
       style="font-weight:bold;font-size:395px;font-family:Montserrat;-inkscape-font-specification:'Montserrat Bold';letter-spacing:0px;fill:#66c18c;stroke-width:76.475;stroke-linejoin:round"
       d="m 843.61503,411.23999 -0.395,-165.9 -81.37,136.67 h -28.835 l -80.975,-133.115 v 162.345 h -60.04 v -276.5 h 52.93 l 103.49,171.825 101.91,-171.825 h 52.535 l 0.79,276.5 z m 125.60997,-276.5 h 63.99 v 276.5 h -63.99 z m 305.7296,276.5 -53.325,-77.025 h -3.16 -55.695 v 77.025 h -63.99 v -276.5 h 119.685 q 36.735,0 63.595,12.245 27.255,12.245 41.87,34.76 14.615,22.515 14.615,53.325 0,30.81 -15.01,53.325 -14.615,22.12 -41.87,33.97 l 62.015,88.875 z m -1.185,-176.17 q 0,-23.305 -15.01,-35.55 -15.01,-12.64 -43.845,-12.64 h -52.14 v 96.38 h 52.14 q 28.835,0 43.845,-12.64 15.01,-12.64 15.01,-35.55 z m 291.5103,176.17 -53.325,-77.025 h -3.16 -55.695 v 77.025 h -63.99 v -276.5 h 119.685 q 36.735,0 63.595,12.245 27.255,12.245 41.87,34.76 14.615,22.515 14.615,53.325 0,30.81 -15.01,53.325 -14.615,22.12 -41.87,33.97 l 62.015,88.875 z m -1.185,-176.17 q 0,-23.305 -15.01,-35.55 -15.01,-12.64 -43.845,-12.64 h -52.14 v 96.38 h 52.14 q 28.835,0 43.845,-12.64 15.01,-12.64 15.01,-35.55 z m 249.2453,180.91 q -43.055,0 -77.815,-18.565 -34.365,-18.565 -54.115,-50.955 -19.355,-32.785 -19.355,-73.47 0,-40.685 19.355,-73.075 19.75,-32.785 54.115,-51.35 34.76,-18.565 77.815,-18.565 43.055,0 77.42,18.565 34.365,18.565 54.115,51.35 19.75,32.39 19.75,73.075 0,40.685 -19.75,73.47 -19.75,32.39 -54.115,50.955 -34.365,18.565 -77.42,18.565 z m 0,-54.51 q 24.49,0 44.24,-11.06 19.75,-11.455 30.81,-31.6 11.455,-20.145 11.455,-45.82 0,-25.675 -11.455,-45.82 -11.06,-20.145 -30.81,-31.205 -19.75,-11.455 -44.24,-11.455 -24.49,0 -44.24,11.455 -19.75,11.06 -31.205,31.205 -11.06,20.145 -11.06,45.82 0,25.675 11.06,45.82 11.455,20.145 31.205,31.6 19.75,11.06 44.24,11.06 z m 375.6449,49.77 -53.325,-77.025 h -3.16 -55.695 v 77.025 h -63.99 v -276.5 h 119.685 q 36.735,0 63.595,12.245 27.255,12.245 41.87,34.76 14.615,22.515 14.615,53.325 0,30.81 -15.01,53.325 -14.615,22.12 -41.87,33.97 l 62.015,88.875 z m -1.185,-176.17 q 0,-23.305 -15.01,-35.55 -15.01,-12.64 -43.845,-12.64 h -52.14 v 96.38 h 52.14 q 28.835,0 43.845,-12.64 15.01,-12.64 15.01,-35.55 z m 206.1903,180.91 q -32.785,0 -63.595,-8.69 -30.415,-9.085 -48.98,-23.305 l 21.725,-48.19 q 17.775,13.035 42.265,20.935 24.49,7.9 48.98,7.9 27.255,0 40.29,-7.9 13.035,-8.295 13.035,-21.725 0,-9.875 -7.9,-16.195 -7.505,-6.715 -19.75,-10.665 -11.85,-3.95 -32.39,-8.69 -31.6,-7.505 -51.745,-15.01 -20.145,-7.505 -34.76,-24.095 -14.22,-16.59 -14.22,-44.24 0,-24.095 13.035,-43.45 13.035,-19.75 39.105,-31.205 26.465,-11.455 64.385,-11.455 26.465,0 51.745,6.32 25.28,6.32 44.24,18.17 l -19.75,48.585 q -38.315,-21.725 -76.63,-21.725 -26.86,0 -39.895,8.69 -12.64,8.69 -12.64,22.91 0,14.22 14.615,21.33 15.01,6.715 45.425,13.43 31.6,7.505 51.745,15.01 20.145,7.505 34.365,23.7 14.615,16.195 14.615,43.845 0,23.7 -13.43,43.45 -13.035,19.355 -39.5,30.81 -26.465,11.455 -64.385,11.455 z"
       id="text1"
       aria-label="MIRRORS" />
  </g>
  <metadata
     id="metadata1">
    <rdf:RDF>
      <cc:Work
         rdf:about="">
        <dc:title>TZP Mirrors LOGO</dc:title>
        <dc:date>2025-01-19</dc:date>
        <dc:creator>
          <cc:Agent>
            <dc:title>Diamochang (Mike Wang)</dc:title>
          </cc:Agent>
        </dc:creator>
        <dc:rights>
          <cc:Agent>
            <dc:title>© 2025 The ZHE Project.</dc:title>
          </cc:Agent>
        </dc:rights>
        <dc:publisher>
          <cc:Agent>
            <dc:title>The ZHE Project</dc:title>
          </cc:Agent>
        </dc:publisher>
        <dc:description>LOGO of TZP Mirrors.</dc:description>
        <dc:identifier>TZP-L/Mirrors</dc:identifier>
      </cc:Work>
    </rdf:RDF>
  </metadata>
</svg>
